<svg width="48" height="48" viewBox="0 0 48 48" fill="none" xmlns="http://www.w3.org/2000/svg">
<rect width="48" height="48.0003" rx="8" fill="white"/>
<path d="M36 36.0003L30.2094 30.2096M30.2094 30.2096C31.1999 29.2191 31.9856 28.0432 32.5217 26.749C33.0577 25.4548 33.3336 24.0677 33.3336 22.6669C33.3336 21.2661 33.0577 19.8791 32.5217 18.5849C31.9856 17.2907 31.1999 16.1148 30.2094 15.1243C29.2188 14.1338 28.0429 13.348 26.7488 12.812C25.4546 12.2759 24.0675 12 22.6667 12C21.2659 12 19.8788 12.2759 18.5846 12.812C17.2905 13.348 16.1145 14.1338 15.124 15.1243C13.1236 17.1247 11.9998 19.8379 11.9998 22.6669C11.9998 25.496 13.1236 28.2092 15.124 30.2096C17.1245 32.21 19.8376 33.3339 22.6667 33.3339C25.4957 33.3339 28.2089 32.21 30.2094 30.2096Z" stroke="black" stroke-width="2.5" stroke-linecap="round" stroke-linejoin="round"/>
</svg>
